PathFileType	4	(X/Y/Z)	C:/Users/beibeiliu/ov580/test_trc\sequence.6_training_dense_left.trc
DataRate	CameraRate	NumFrames	NumMarkers	Units	OrigDataRate	OrigDataStartFrame	OrigNumFrames
120	120	20	19	mm	120	101	125
Frame#	Time	ThumbCMC			ThumbMCP			ThumbIP			ThumbTip			IndexMCP			IndexPIP			IndexTip			MiddleMCP			MiddlePIP			MiddleTip			RingMCP			RingPIP			RingTip			PinkyMCP			PinkyPIP			PinkyTip			BackHand1			BackHand2			BackHand3	
		X0	Y0	Z0	X1	Y1	Z1	X2	Y2	Z2	X3	Y3	Z3	X4	Y4	Z4	X5	Y5	Z5	X6	Y6	Z6	X7	Y7	Z7	X8	Y8	Z8	X9	Y9	Z9	X10	Y10	Z10	X11	Y11	Z11	X12	Y12	Z12	X13	Y13	Z13	X14	Y14	Z14	X15	Y15	Z15	X16	Y16	Z16	X17	Y17	Z17	X18	Y18	Z18	
100	0.833333	-122.165	96.034	71.6314	-102.248	78.0043	46.1781	-100.129	64.1823	28.9814	-105.064	44.8999	12.8685	-143.805	101.39	8.75782	-143.177	93.3172	-16.3955	-127.497	70.4715	-31.3016	-151.087	74.2272	0.679724	-132.866	54.9602	-6.87211	-114.422	50.5213	21.5247	-154.484	58.4183	15.2892	-131.93	43.8451	18.3747	-122.626	48.903	46.8282	-161.249	44.6791	30.5198	-137.784	40.1286	36.0518	-130.908	53.0628	57.5581	-174.042	84.2577	53.6026	-170.207	90.6186	83.4384	-151.881	106.199	64.323	
101	0.841667	-116.25	89.8389	67.1585	-105.1	68.9645	49.2929	-105.208	55.6235	29.1067	-111.89	39.3905	12.9329	-134.87	101.124	8.40319	-132.558	91.7538	-15.9448	-120.255	61.2425	-21.8645	-146.846	78.8114	3.92697	-132.579	51.453	-4.41835	-122.407	43.3676	22.3207	-153.385	60.7891	12.5946	-135.384	38.9418	21.0955	-127.975	43.9408	45.864	-164.554	49.6136	27.4085	-143.772	39.9944	33.4471	-136.602	50.3627	58.7447	-169.596	90.7848	52.9426	-168.404	91.9764	77.9159	-144.992	107.976	61.3047	
102	0.85	-110.938	80.3792	70.5559	-100.698	58.7642	47.7794	-103.996	46.1443	30.2318	-116.043	31.9019	13.6029	-125.545	95.6386	7.74248	-123.197	81.8138	-14.819	-116.884	54.5972	-15.1659	-143.222	73.7084	2.966	-128.492	48.9541	-5.00695	-122.341	37.8096	24.8857	-153.999	57.0599	14.8162	-136.042	35.8316	21.1944	-131.744	37.8515	48.1523	-163.356	51.3162	28.4188	-143.69	36.7174	36.3961	-139.736	46.133	60.4538	-164.668	88.048	53.3647	-160.141	91.547	79.2143	-139.956	100.91	64.2434	
103	0.858333	-111.759	71.6505	72.6782	-101.429	51.0283	52.1481	-102.116	36.7923	31.6824	-117.592	24.8778	13.8412	-121.752	88.4388	10.505	-119.749	74.2204	-14.2929	-112.9	45.5671	-14.9072	-138.208	69.8896	4.51135	-130.442	40.8847	-1.65199	-123.512	31.4998	24.4831	-149.312	55.4627	14.5481	-137.608	32.1982	21.0789	-132.964	35.2623	50.1101	-162.375	48.227	27.2746	-144.987	33.3318	37.7072	-138.618	44.6661	61.483	-159.136	85.8417	53.3959	-156.624	89.3927	79.5183	-134.396	95.1859	65.6457	
104	0.866667	-109.888	65.6337	75.2695	-103.039	43.1084	51.1814	-104.429	28.1642	31.7874	-122.131	17.4834	13.0844	-117.287	82.3594	10.3853	-118.485	68.3823	-15.3154	-116.591	40.1865	-21.6293	-138.386	63.679	5.34829	-131.892	35.5489	-1.6575	-125.188	26.431	30.5857	-150.902	48.4307	13.5468	-140.766	27.4218	20.8061	-133.454	30.094	50.0602	-164.205	48.729	29.5617	-148.707	29.3227	37.5554	-141.523	37.0715	61.6792	-158.345	85.1706	53.1689	-157.663	88.5937	84.0642	-127.84	89.7462	68.1446	
105	0.875	-110.283	58.8686	72.6933	-103.889	33.8128	54.4256	-110.603	22.0876	33.4782	-121.392	10.4087	20.3022	-113.627	73.8783	11.7009	-118.224	64.5798	-12.197	-114.901	35.0556	-24.5014	-133.225	57.6151	6.29029	-132.667	29.0388	-0.676629	-126.619	17.9099	30.6683	-151.311	47.5139	18.1857	-140.64	19.79	25.4827	-135.581	23.7732	54.575	-166.917	40.9075	30.8361	-153.178	22.2177	39.8781	-140.768	32.5572	59.2993	-152.003	80.2774	55.0035	-151.964	84.4747	83.8429	-129.667	83.0967	64.4571	
106	0.883333	-107.25	50.6154	76.2871	-103.412	24.3426	58.0776	-112.087	12.6414	35.5149	-130.207	2.71793	19.2866	-116.818	66.712	10.6476	-118.671	54.5378	-12.359	-118.754	26.3616	-16.9676	-137.69	48.2361	5.84725	-135.641	21.098	3.45386	-132.504	12.0221	36.1835	-152.91	40.1949	20.195	-147.939	13.8969	27.4682	-141.245	15.2742	54.1567	-165.034	32.9645	31.883	-157.243	14.9442	44.6471	-145.354	28.4079	67.7201	-156.198	72.6463	55.3541	-153.568	77.8892	86.429	-126.088	77.3562	69.3382	
107	0.891667	-112.482	47.1145	79.1586	-109.265	21.4401	55.3871	-114.816	9.38187	39.4004	-129.425	-2.54976	21.1468	-117.815	61.6681	15.3516	-122.325	47.2325	-9.51446	-123.496	17.7575	-8.10416	-140.768	43.6006	7.90274	-137.986	15.0293	6.30532	-135.928	6.92516	34.0744	-157.251	34.6648	20.814	-153.608	9.10308	26.9844	-141.445	10.5399	54.2189	-169.708	31.2443	32.8648	-159.151	13.1179	42.6319	-146.75	22.1493	64.1831	-159.387	70.1679	57.3802	-155.372	74.7942	87.0352	-128.887	76.0472	68.778	
108	0.9	-113.822	46.8372	79.3365	-112.078	22.8206	57.6419	-113.196	8.46751	39.1805	-125.192	-3.38642	24.0259	-120.304	58.9601	14.4354	-123.679	42.764	-9.10585	-120.645	11.5558	-4.87304	-140.493	44.4396	6.72377	-140.442	14.3699	3.7354	-135.121	3.63814	31.5252	-160.251	33.5786	16.9214	-156.2	9.43518	20.8671	-145.63	5.91206	48.2838	-173.472	30.911	31.952	-163.031	9.42089	40.274	-148.386	13.8947	58.1053	-158.671	69.4162	57.6793	-156.752	74.9473	84.2724	-132.696	72.0732	67.7227	
109	0.908333	-116.443	50.1798	76.0571	-105.603	26.3694	58.0702	-110.219	13.9558	39.5353	-119.107	1.07467	19.9037	-124.454	57.9501	11.4908	-123.246	44.3507	-8.36956	-120.924	16.2764	-10.0397	-143.927	50.5693	9.68	-142.477	21.9241	-5.93997	-141.41	1.1197	14.9322	-162.177	42.3105	14.504	-156.942	14.6069	10.6017	-150.685	1.34665	29.5734	-178.652	35.3993	27.0976	-165.428	14.4358	26.0892	-153.628	6.91913	46.8133	-163.137	69.23	60.5366	-159.941	76.4319	85.7821	-134.672	75.603	70.023	
110	0.916667	-114.923	53.7713	80.7576	-102.651	32.3166	57.1337	-104.023	21.0575	38.5882	-109.318	10.2313	21.0844	-123.182	56.8812	11.9694	-123.959	38.9163	-9.38976	-120.413	15.9354	-14.8545	-144.457	52.729	5.85876	-145.965	29.1632	-12.2551	-140.797	-1.92658	-2.13729	-162.802	49.6289	13.8263	-161.617	27.2713	-1.20913	-155.523	2.18498	6.83454	-179.586	43.1355	26.8075	-174.865	23.228	15.5465	-161.294	6.8869	24.5503	-165.316	69.5723	59.954	-163.46	76.3909	85.1934	-135.39	77.2032	68.9595	
111	0.925	-117.483	56.0614	79.5731	-104.887	38.1877	63.725	-99.8227	27.9426	42.7879	-96.5185	15.9376	24.6964	-123.006	53.1894	11.7505	-123.279	37.3263	-7.44941	-122.045	10.3181	-15.6296	-144.655	53.5982	5.03509	-148.204	34.7778	-13.7426	-146.596	3.18267	-19.1773	-167.411	50.1293	14.0877	-167.88	33.5331	-5.4175	-162.247	9.719	-10.7325	-185.264	46.5483	30.757	-185.627	30.8932	11.8019	-174.779	5.02208	6.52898	-163.962	69.1574	54.4547	-162.672	76.7174	83.2422	-140.487	76.207	69.1708	
112	0.933333	-116.65	53.806	83.9359	-103.633	38.2845	62.7511	-98.9693	30.0902	43.5276	-92.1047	19.4466	24.9505	-123.463	48.4575	14.6363	-120.022	30.0873	-5.66003	-120.739	5.16241	-16.2557	-151.24	48.7659	10.6987	-146.583	34.6954	-11.8046	-147.143	10.2493	-26.1323	-168.652	45.2815	14.9049	-169.551	32.8698	-3.80422	-165.37	14.2216	-17.3461	-185.804	40.7365	29.0266	-185.982	31.2783	14.4871	-182.65	10.5709	-0.213128	-167.784	64.3802	61.1152	-164.631	71.2914	83.2398	-141.193	73.1361	68.579	
113	0.941667	-116.531	49.0552	82.6087	-104.35	36.2159	66.5556	-97.0014	27.6357	44.5696	-91.2225	19.2569	25.0718	-124.89	43.2258	17.5425	-122.441	25.1651	-4.55712	-120.07	3.25915	-16.3029	-152.313	41.3542	8.18451	-147.477	30.6192	-10.0263	-149.755	4.40015	-29.5272	-168.386	39.849	16.218	-168.564	28.794	-1.33668	-169.466	11.4128	-20.7693	-186.438	35.1008	34.7614	-190.895	24.1321	14.5258	-190.861	9.81396	-2.11725	-164.597	59.2634	60.071	-168.8	65.747	87.0727	-140.805	67.0679	73.4427	
114	0.95	-122.137	46.3802	87.3896	-107.204	32.3724	62.9053	-101.107	24.4531	42.5988	-97.2681	15.2586	27.7962	-126.436	41.4548	17.2966	-123.947	23.7222	-2.72976	-125.412	5.45731	-14.7808	-149.129	40.2005	12.2303	-151.285	23.7136	-11.7953	-149.271	8.14294	-26.9223	-172.811	36.3058	16.9644	-171.56	26.1953	0.979252	-170.84	11.9216	-17.283	-185.802	33.1062	37.1556	-189.144	23.9512	17.6643	-194.371	10.6829	1.52307	-169.224	55.0781	65.507	-171.135	61.6068	85.0502	-145.77	65.1542	74.055	
115	0.958333	-126.623	46.6862	84.1195	-112.536	32.4272	67.7759	-103.346	22.6697	43.7083	-100.926	13.997	27.4892	-130.628	43.5438	18.3785	-128.112	26.4937	-4.35356	-125.64	9.23726	-15.7594	-157.332	40.2871	11.7532	-157.783	23.6586	-11.3122	-153.871	6.97974	-25.5775	-173.085	37.7865	21.8014	-175.105	23.7268	-3.22094	-173.148	9.2366	-17.0831	-192.534	32.4053	34.1876	-196.524	21.7571	19.5163	-194.644	9.41273	0.135497	-173.739	55.4572	62.9289	-172.182	63.8068	86.4926	-144.755	64.8115	72.4602	
116	0.966667	-128.218	47.0527	87.9236	-113.312	31.5723	63.768	-106.483	22.1934	47.541	-107.021	12.2852	26.7652	-135.538	44.009	20.1559	-134.486	31.7721	-1.27818	-130.002	10.8492	-17.234	-160.216	41.7435	14.8051	-157.181	27.0889	-9.85016	-159.615	4.95677	-25.2262	-178.279	37.571	23.2345	-177.339	24.5674	-0.739749	-178.538	9.3094	-15.4781	-193.139	32.1256	35.1243	-199.624	22.4681	21.292	-200.465	9.30674	3.33245	-173.365	58.4603	63.4901	-177.999	64.7027	88.0162	-148.72	66.9181	75.7314	
117	0.975	-126.919	46.0779	88.8967	-110.423	30.8595	65.5957	-108.004	22.5349	48.5968	-107.109	12.4881	29.4669	-137.074	45.1009	18.4653	-132.22	32.1389	-2.64188	-131.234	11.9225	-17.6957	-160.393	42.8607	16.0447	-161.338	28.4746	-6.51007	-161.435	7.61858	-23.0192	-175.527	38.4351	22.7734	-177.011	28.3197	3.69059	-177.742	9.57623	-14.5698	-195.848	33.226	40.1841	-199.556	22.4159	21.2106	-199.008	10.576	2.41641	-174.943	57.3011	63.1915	-172.872	63.7841	92.975	-152.36	65.1513	74.6451	
118	0.983333	-129.693	46.1173	86.9839	-112.823	31.4249	65.1634	-110.617	23.0685	46.4273	-103.121	10.8537	28.8393	-134.518	47.2192	19.7959	-132.116	33.2775	-3.04215	-131.965	14.3191	-16.3313	-157.695	43.7304	16.5092	-156.91	30.8442	-6.21498	-158.65	7.05066	-23.8681	-179.905	38.2134	20.7817	-180.448	28.2385	3.06255	-178.18	9.96339	-16.2588	-195.391	33.6907	39.7622	-199.824	24.7839	22.8385	-197.324	12.247	3.24084	-177.512	58.537	67.0494	-175.967	64.1959	93.1738	-148.527	65.3864	78.9325	
119	0.991667	-129.114	42.4216	87.1336	-110.523	28.2656	66.6044	-106.959	18.7831	45.9768	-105.531	7.16191	28.4919	-133.088	44.2304	23.7952	-131.565	32.4606	0.061872	-130.832	10.3869	-16.4096	-159.578	40.6736	15.3233	-158.055	25.2394	-8.9551	-157.435	2.19032	-25.4997	-177.951	37.0907	22.3481	-176.424	25.7929	1.87823	-178.182	9.68126	-13.3995	-193.952	31.1781	38.5528	-198.868	20.6152	21.7152	-194.52	7.3766	3.42984	-176.532	55.722	64.1534	-176.628	60.3951	91.3276	-151.505	63.0761	79.4675	
